# Blender 4.2.9 LTS
# www.blender.org
mtllib Treasure Chest.mtl
o ChestBase
v -0.216221 -0.000000 0.506462
v -0.237507 0.491669 0.538556
v -0.216221 -0.000000 -0.506462
v -0.237507 0.491669 -0.538556
v 0.455589 -0.000000 0.506462
v 0.476875 0.491669 0.538556
v 0.455589 -0.000000 -0.506462
v 0.476875 0.491669 -0.538556
v 0.355824 0.381279 -0.420227
v -0.116456 0.381279 -0.420227
v -0.141015 0.381279 0.445227
v -0.126283 0.090682 0.421747
v -0.116456 0.381279 0.420227
v 0.355824 0.381279 0.420227
v 0.380384 0.381279 -0.445227
v 0.365651 0.090682 -0.421747
v 0.345667 -0.000000 -0.506462
v -0.106299 -0.000000 -0.506462
v -0.120619 0.491669 -0.538556
v 0.359987 0.491669 -0.538556
v -0.106299 -0.000000 0.506462
v 0.345667 -0.000000 0.506462
v 0.359987 0.491669 0.538556
v -0.120619 0.491669 0.538556
v -0.120619 0.491669 -0.427635
v 0.359987 0.491669 -0.427635
v -0.120619 0.491669 0.427635
v 0.359987 0.491669 0.427635
v 0.345667 -0.000000 -0.402151
v -0.106299 -0.000000 -0.402151
v 0.345667 -0.000000 0.402151
v -0.106299 -0.000000 0.402151
v -0.233081 0.389444 0.531883
v -0.233081 0.389444 -0.531883
v 0.472449 0.389444 -0.531883
v 0.472449 0.389444 0.531883
v 0.472449 0.389444 -0.422336
v 0.472449 0.389444 0.422336
v -0.233081 0.389444 0.422336
v -0.233081 0.389444 -0.422336
v 0.357010 0.389444 0.531883
v -0.117642 0.389444 0.531883
v -0.117642 0.389444 -0.531883
v 0.357010 0.389444 -0.531883
v -0.220479 0.098342 -0.512882
v 0.459847 0.098342 -0.512882
v 0.459847 0.098342 0.512882
v 0.459847 0.098342 -0.407248
v 0.459847 0.098342 0.407248
v -0.220479 0.098342 0.407248
v -0.220479 0.098342 -0.407248
v 0.348531 0.098342 0.512882
v -0.109163 0.098342 0.512882
v -0.109163 0.098342 -0.512882
v 0.348531 0.098342 -0.512882
v -0.220479 0.098342 0.512882
v -0.117642 0.390638 -0.513586
v 0.357010 0.390638 -0.513586
v 0.357010 0.390638 0.513586
v -0.117642 0.390638 0.513586
v 0.348531 0.099536 0.494585
v -0.109163 0.099536 0.494585
v -0.109163 0.099536 -0.494585
v 0.348531 0.099536 -0.494585
v -0.214762 0.390237 0.222258
v -0.214762 0.390237 -0.222258
v 0.454131 0.390237 -0.222258
v 0.454131 0.390237 0.222258
v 0.441528 0.099135 -0.214318
v 0.441528 0.099135 0.214318
v -0.202160 0.099135 0.214318
v -0.202160 0.099135 -0.214318
v -0.106299 0.019158 0.402151
v 0.345667 0.019158 0.402151
v -0.106299 0.019158 -0.402151
v 0.345667 0.019158 -0.402151
v -0.214762 0.390237 0.151155
v -0.214762 0.390237 -0.151155
v 0.454131 0.390237 -0.151155
v 0.454131 0.390237 0.151155
v 0.441528 0.099135 -0.145755
v 0.441528 0.099135 0.145755
v -0.202160 0.099135 0.145755
v -0.202160 0.099135 -0.145755
v -0.196281 0.391037 -0.222258
v -0.196281 0.391037 -0.422336
v 0.435649 0.391037 0.222258
v 0.435649 0.391037 0.422336
v 0.435649 0.391037 -0.422336
v 0.423047 0.099935 -0.407248
v 0.423047 0.099935 0.407248
v -0.196281 0.391037 0.422336
v -0.183679 0.099935 0.407248
v -0.183679 0.099935 -0.407248
v 0.423047 0.099935 0.214318
v -0.183679 0.099935 -0.214318
v -0.196281 0.391037 0.222258
v 0.435649 0.391037 -0.222258
v 0.423047 0.099935 -0.214318
v -0.183679 0.099935 0.214318
v -0.196281 0.391037 0.151155
v -0.196281 0.391037 -0.151155
v 0.435649 0.391037 -0.151155
v 0.435649 0.391037 0.151155
v 0.423047 0.099935 -0.145755
v 0.423047 0.099935 0.145755
v -0.183679 0.099935 0.145755
v -0.183679 0.099935 -0.145755
v 0.380384 0.381279 0.445227
v -0.141015 0.381279 -0.445227
v -0.126283 0.090682 -0.421747
v 0.365651 0.090682 0.421747
vn -0.9987 0.0506 -0.0000
vn 0.9993 0.0377 -0.0000
vn -0.0000 1.0000 -0.0000
vn -0.0000 -1.0000 -0.0000
vn 0.9991 -0.0433 -0.0000
vn -0.9991 -0.0433 -0.0000
vn -0.0000 0.0805 0.9968
vn -0.0000 -0.0651 0.9979
vn -0.0000 -0.0651 -0.9979
vn 0.9996 0.0290 -0.0019
vn -0.0000 0.9979 -0.0651
vn 0.9996 0.0290 0.0019
vn -0.9993 0.0377 -0.0000
vn -0.0000 0.0670 -0.9978
vn -0.0012 -0.0272 -0.9996
vn -0.0433 0.9991 -0.0000
vn -0.9996 0.0290 -0.0019
vn -0.0000 -0.9979 0.0651
vn -0.0000 -0.9979 -0.0651
vn -0.0022 0.0517 0.9987
vn -0.0000 0.9979 0.0651
vn -0.9996 0.0290 0.0019
vn -0.0000 -0.0000 -1.0000
vn 1.0000 -0.0000 -0.0000
vn 0.0433 -0.9991 -0.0000
vn -0.0000 -0.0000 1.0000
vn -0.0000 0.0670 0.9978
vn 0.9987 0.0506 -0.0000
vn -1.0000 -0.0000 -0.0000
vn -0.0000 0.0805 -0.9968
vn 0.0008 0.0185 -0.9998
vn -0.0022 0.0517 -0.9987
vn -0.0012 -0.0272 0.9996
vn 0.0433 0.9991 -0.0000
vn 0.0012 -0.0272 0.9996
vn 0.0012 -0.0272 -0.9996
vn 0.0022 0.0517 -0.9987
vn -0.0008 0.0185 -0.9998
vn -0.0008 0.0185 0.9998
vn -0.0433 -0.9991 -0.0000
vn 0.0008 0.0185 0.9998
vn 0.0022 0.0517 0.9987
vt 0.058715 0.441428
vt 0.058715 0.147424
vt 0.154785 0.155177
vt 0.154786 0.433676
vt 0.457862 0.153233
vt 0.457862 0.435620
vt 0.421388 0.433174
vt 0.421388 0.155679
vt 0.767942 0.054010
vt 0.767942 0.409643
vt 0.729349 0.409643
vt 0.729349 0.373020
vt 0.729349 0.090634
vt 0.729349 0.054010
vt 0.752603 0.516379
vt 0.752603 0.850820
vt 0.716309 0.850820
vt 0.716309 0.816379
vt 0.716309 0.550820
vt 0.716309 0.516379
vt 0.532072 0.054010
vt 0.532072 0.409643
vt 0.498289 0.407440
vt 0.498289 0.371271
vt 0.498289 0.092383
vt 0.498289 0.056214
vt 0.801725 0.056214
vt 0.801725 0.092383
vt 0.801725 0.371271
vt 0.801725 0.407440
vt 0.567082 0.550820
vt 0.567082 0.816379
vt 0.567082 0.850820
vt 0.530789 0.850820
vt 0.530789 0.516379
vt 0.567082 0.516379
vt 0.570666 0.090634
vt 0.570666 0.373020
vt 0.570666 0.409643
vt 0.570666 0.054010
vt 0.149921 0.058916
vt 0.322073 0.058917
vt 0.317209 0.155177
vt 0.766481 0.443467
vt 0.728366 0.443467
vt 0.571649 0.443467
vt 0.533534 0.443467
vt 0.533534 0.020187
vt 0.571649 0.020187
vt 0.728366 0.020187
vt 0.766481 0.020187
vt 0.158030 0.050662
vt 0.313964 0.050662
vt 0.909690 0.829498
vt 0.911867 0.733164
vt 0.917919 0.733300
vt 0.915742 0.829635
vt 0.872986 0.827601
vt 0.873803 0.731196
vt 0.870464 0.606525
vt 0.869647 0.702930
vt 0.831582 0.700963
vt 0.833759 0.604628
vt 0.717255 0.483841
vt 0.566137 0.483841
vt 0.566137 0.477787
vt 0.717255 0.477787
vt 0.889608 0.016167
vt 0.890426 0.112572
vt 0.854314 0.110524
vt 0.854787 0.014192
vt 0.928490 0.110604
vt 0.926313 0.014269
vt 0.932365 0.014133
vt 0.934542 0.110467
vt 0.872986 0.479821
vt 0.873803 0.576226
vt 0.837692 0.574178
vt 0.838164 0.477846
vt 0.905285 0.604551
vt 0.905758 0.700883
vt 0.909690 0.477923
vt 0.911867 0.574258
vt 0.838164 0.829575
vt 0.837691 0.733243
vt 0.014133 0.435619
vt 0.014133 0.153233
vt 0.050606 0.155679
vt 0.050606 0.433174
vt 0.315339 0.574719
vt 0.156656 0.574719
vt 0.158030 0.538190
vt 0.313964 0.538190
vt 0.785103 0.549137
vt 0.785103 0.818062
vt 0.785103 0.852939
vt 0.785103 0.514260
vt 0.498289 0.818062
vt 0.498289 0.549137
vt 0.498289 0.514260
vt 0.498289 0.852939
vt 0.717255 0.883359
vt 0.566137 0.883359
vt 0.529383 0.883359
vt 0.754008 0.883359
vt 0.754008 0.483841
vt 0.529383 0.483841
vt 0.300595 0.756903
vt 0.204276 0.759702
vt 0.204276 0.602985
vt 0.300595 0.605784
vt 0.328860 0.605784
vt 0.425178 0.602985
vt 0.425178 0.759702
vt 0.328860 0.756903
vt 0.975765 0.574442
vt 0.974926 0.478206
vt 0.981034 0.478153
vt 0.981872 0.574389
vt 0.492235 0.612838
vt 0.486127 0.612838
vt 0.486127 0.549137
vt 0.486127 0.818062
vt 0.486127 0.754362
vt 0.492235 0.754362
vt 0.492235 0.731724
vt 0.486127 0.731724
vt 0.486127 0.635475
vt 0.492235 0.635475
vt 0.915742 0.477787
vt 0.917919 0.574121
vt 0.571649 0.014133
vt 0.728366 0.014133
vt 0.728366 0.449521
vt 0.571649 0.449521
vt 0.826003 0.829635
vt 0.825530 0.733303
vt 0.717255 0.889413
vt 0.566137 0.889413
vt 0.825530 0.700826
vt 0.827707 0.604491
vt 0.169685 0.881195
vt 0.020458 0.881195
vt 0.020458 0.874869
vt 0.169685 0.874869
vt 0.169685 0.609310
vt 0.020458 0.609310
vt 0.014133 0.874869
vt 0.014133 0.609310
vt 0.966034 0.265758
vt 0.966034 0.361979
vt 0.942562 0.362414
vt 0.943400 0.266178
vt 0.813887 0.092383
vt 0.813887 0.158443
vt 0.807779 0.158443
vt 0.807779 0.181919
vt 0.813887 0.181919
vt 0.813887 0.281734
vt 0.807779 0.281734
vt 0.807779 0.305210
vt 0.813887 0.305210
vt 0.813887 0.371271
vt 0.966034 0.140837
vt 0.966034 0.237058
vt 0.942562 0.237493
vt 0.943400 0.141257
vt 0.020458 0.602985
vt 0.169685 0.602985
vt 0.156656 0.014133
vt 0.315339 0.014133
vt 0.413279 0.147424
vt 0.413279 0.441428
vt 0.317209 0.433676
vt 0.176011 0.609310
vt 0.176011 0.874869
vt 0.149921 0.529936
vt 0.322073 0.529936
vt 0.974926 0.604911
vt 0.975765 0.701147
vt 0.952293 0.700712
vt 0.952293 0.604491
vt 0.972142 0.265758
vt 0.972142 0.361979
vt 0.952293 0.574007
vt 0.952293 0.477787
vt 0.842153 0.110464
vt 0.842625 0.014133
vt 0.842153 0.238877
vt 0.842153 0.142637
vt 0.908189 0.140837
vt 0.905829 0.237141
vt 0.908189 0.267142
vt 0.908189 0.363382
vt 0.842153 0.365181
vt 0.844512 0.268877
vt 0.889207 0.859636
vt 0.891566 0.955940
vt 0.825530 0.954140
vt 0.825530 0.857900
vt 0.983508 0.859635
vt 0.985867 0.955939
vt 0.919831 0.954140
vt 0.919831 0.857900
vt 0.328745 0.789750
vt 0.424949 0.787967
vt 0.424949 0.887782
vt 0.328745 0.885999
vt 0.204276 0.789750
vt 0.300480 0.787967
vt 0.300480 0.887782
vt 0.204276 0.885999
vt 0.936454 0.362361
vt 0.937293 0.266125
vt 0.797264 0.549137
vt 0.797264 0.612837
vt 0.791157 0.612837
vt 0.791157 0.635475
vt 0.797265 0.635475
vt 0.797265 0.731724
vt 0.791157 0.731724
vt 0.791157 0.754361
vt 0.797265 0.754361
vt 0.797265 0.818062
vt 0.981034 0.604857
vt 0.981872 0.701093
vt 0.936454 0.237440
vt 0.937293 0.141204
vt 0.917447 0.604491
vt 0.917919 0.700823
vt 0.946185 0.700712
vt 0.946185 0.604491
vt 0.972142 0.140837
vt 0.972142 0.237058
vt 0.492235 0.158443
vt 0.486127 0.158443
vt 0.486127 0.092383
vt 0.486127 0.371271
vt 0.486127 0.305211
vt 0.492235 0.305211
vt 0.492235 0.281734
vt 0.486127 0.281734
vt 0.486127 0.181920
vt 0.492235 0.181920
vt 0.946185 0.574007
vt 0.946185 0.477787
vt 0.825530 0.574118
vt 0.826003 0.477787
s 0
usemtl ChestBase
f 109/1/1 15/2/1 16/3/1 112/4/1
f 25/5/2 27/6/2 13/7/2 10/8/2
f 4/9/3 2/10/3 24/11/3 27/12/3 25/13/3 19/14/3
f 7/15/4 5/16/4 22/17/4 31/18/4 29/19/4 17/20/4
f 8/21/5 6/22/5 36/23/5 38/24/5 37/25/5 35/26/5
f 2/10/6 4/9/6 34/27/6 40/28/6 39/29/6 33/30/6
f 30/31/4 32/32/4 21/33/4 1/34/4 3/35/4 18/36/4
f 18/36/4 17/20/4 29/19/4 30/31/4
f 26/37/3 28/38/3 23/39/3 6/22/3 8/21/3 20/40/3
f 20/40/3 19/14/3 25/13/3 26/37/3
f 28/38/3 27/12/3 24/11/3 23/39/3
f 15/41/7 110/42/7 111/43/7 16/3/7
f 32/32/4 31/18/4 22/17/4 21/33/4
f 23/39/8 24/11/8 2/10/8 33/44/8 42/45/8 41/46/8 36/47/8 6/22/8
f 19/14/9 20/40/9 8/21/9 35/48/9 44/49/9 43/50/9 34/51/9 4/9/9
f 9/52/4 10/53/4 110/42/4 15/41/4
f 54/54/10 43/55/10 57/56/10 63/57/10
f 45/58/9 34/59/9 43/55/9 54/54/9
f 47/60/8 36/61/8 41/62/8 52/63/8
f 55/64/11 54/65/11 63/66/11 64/67/11
f 56/68/6 33/69/6 39/70/6 50/71/6
f 42/72/12 53/73/12 62/74/12 60/75/12
f 46/76/5 35/77/5 37/78/5 48/79/5
f 53/73/8 42/72/8 33/69/8 56/68/8
f 49/80/5 38/81/5 36/61/5 47/60/5
f 55/82/9 44/83/9 35/77/9 46/76/9
f 51/84/6 40/85/6 34/59/6 45/58/6
f 28/86/13 26/87/13 9/88/13 14/89/13
f 27/90/14 28/91/14 14/92/14 13/93/14
f 48/94/5 49/95/5 47/96/5 5/16/5 7/15/5 46/97/5
f 50/98/6 51/99/6 45/100/6 3/35/6 1/34/6 56/101/6
f 52/102/8 53/103/8 56/104/8 1/34/8 21/33/8 22/17/8 5/16/8 47/105/8
f 54/65/9 55/64/9 46/106/9 7/15/9 17/20/9 18/36/9 3/35/9 45/107/9
f 63/108/9 57/109/9 58/110/9 64/111/9
f 61/112/8 59/113/8 60/114/8 62/115/8
f 67/116/15 69/117/15 99/118/15 98/119/15
f 72/120/16 96/121/16 94/122/16 51/99/16 50/98/16 93/123/16 100/124/16 71/125/16 83/126/16 107/127/16 108/128/16 84/129/16
f 44/83/17 55/82/17 64/130/17 58/131/17
f 43/50/18 44/49/18 58/132/18 57/133/18
f 41/46/19 42/45/19 60/134/19 59/135/19
f 51/84/20 94/136/20 86/137/20 40/85/20
f 53/103/21 52/102/21 61/138/21 62/139/21
f 52/63/22 41/62/22 59/140/22 61/141/22
f 31/142/23 32/143/23 73/144/23 74/145/23
f 76/146/4 74/145/4 73/144/4 75/147/4
f 32/148/24 30/149/24 75/147/24 73/144/24
f 82/150/5 80/151/5 68/152/5 70/153/5
f 40/28/25 86/154/25 85/155/25 66/156/25 78/157/25 102/158/25 101/159/25 77/160/25 65/161/25 97/162/25 92/163/25 39/29/25
f 84/164/6 78/165/6 66/166/6 72/167/6
f 30/168/26 29/169/26 76/146/26 75/147/26
f 26/170/27 25/171/27 10/53/27 9/52/27
f 110/172/28 11/173/28 12/174/28 111/43/28
f 29/175/29 31/176/29 74/145/29 76/146/29
f 14/89/4 9/88/4 15/2/4 109/1/4
f 10/8/4 13/7/4 11/173/4 110/172/4
f 13/93/4 14/92/4 109/177/4 11/178/4
f 111/43/3 12/174/3 112/4/3 16/3/3
f 11/178/30 109/177/30 112/4/30 12/174/30
f 71/179/6 65/180/6 77/181/6 83/182/6
f 80/151/31 82/150/31 106/183/31 104/184/31
f 69/117/5 67/116/5 79/185/5 81/186/5
f 39/70/32 92/187/32 93/188/32 50/71/32
f 96/189/6 85/190/6 86/191/6 94/192/6
f 95/193/5 87/194/5 88/195/5 91/196/5
f 90/197/5 89/198/5 98/199/5 99/200/5
f 93/201/6 92/202/6 97/203/6 100/204/6
f 107/205/6 101/206/6 102/207/6 108/208/6
f 105/209/5 103/210/5 104/211/5 106/212/5
f 70/153/33 68/152/33 87/213/33 95/214/33
f 48/94/34 90/215/34 99/216/34 69/217/34 81/218/34 105/219/34 106/220/34 82/221/34 70/222/34 95/223/34 91/224/34 49/95/34
f 65/180/35 71/179/35 100/225/35 97/226/35
f 72/167/36 66/166/36 85/227/36 96/228/36
f 49/80/37 91/229/37 88/230/37 38/81/37
f 83/182/38 77/181/38 101/231/38 107/232/38
f 78/165/39 84/164/39 108/233/39 102/234/39
f 67/235/40 98/236/40 89/237/40 37/25/40 38/24/40 88/238/40 87/239/40 68/240/40 80/241/40 104/242/40 103/243/40 79/244/40
f 81/186/41 79/185/41 103/245/41 105/246/41
f 37/78/42 89/247/42 90/248/42 48/79/42
o ChestLid
v 0.545949 1.226987 0.001797
v 0.538930 1.226987 -0.017487
v 0.521158 1.226987 -0.027747
v 0.500948 1.226987 -0.024184
v 0.487758 1.226987 -0.008464
v 0.487758 1.226987 0.012058
v 0.500948 1.226987 0.027778
v 0.521158 1.226987 0.031341
v 0.538930 1.226987 0.021081
v 0.422080 1.226987 -0.020661
v 0.422080 1.226987 0.024255
v 0.577272 0.616094 -0.538556
v 0.577272 1.081625 -0.538556
v 0.577272 0.616093 0.538556
v 0.577272 1.081625 0.538556
v 0.585855 0.616094 -0.538556
v 0.600296 1.206050 -0.538556
v 0.585855 0.616093 0.538556
v 0.600296 1.206050 0.538556
v 0.671695 0.659810 -0.538556
v 0.745142 1.132284 -0.538556
v 0.671695 0.659810 0.538556
v 0.745142 1.132284 0.538556
v 0.722982 0.764880 -0.538556
v 0.722982 0.932839 -0.538556
v 0.722982 0.764880 0.538556
v 0.722982 0.932839 0.538556
v 0.476875 1.206050 -0.427635
v 0.476875 1.206050 0.427635
v 0.600297 0.491669 0.427635
v 0.600297 0.491669 -0.427635
v 0.600296 1.206050 -0.427635
v 0.600296 1.206050 0.427635
v 0.745142 0.565435 0.427635
v 0.745142 0.565435 -0.427635
v 0.745142 1.132284 -0.427635
v 0.745142 1.132284 0.427635
v 0.826388 0.731879 0.427635
v 0.826388 0.731879 -0.427635
v 0.826388 0.965840 -0.427635
v 0.826388 0.965840 0.427635
v 0.476875 0.491669 -0.538556
v 0.476875 1.206050 -0.538556
v 0.585855 1.081625 -0.538556
v 0.600297 0.491669 -0.538556
v 0.671695 1.037909 -0.538556
v 0.745142 0.565435 -0.538556
v 0.826388 0.731879 -0.538556
v 0.826388 0.965840 -0.538556
v 0.476875 0.491669 0.538556
v 0.476875 1.206050 0.538556
v 0.585855 1.081625 0.538556
v 0.600297 0.491669 0.538556
v 0.671695 1.037909 0.538556
v 0.745142 0.565435 0.538556
v 0.826388 0.731879 0.538556
v 0.826388 0.965840 0.538556
v 0.600297 0.491669 -0.222258
v 0.600297 0.491669 0.222258
v 0.745142 0.565435 -0.222258
v 0.745142 0.565435 0.222258
v 0.826388 0.731879 -0.222258
v 0.826388 0.731879 0.222258
v 0.600296 1.206050 0.222258
v 0.600296 1.206050 -0.222258
v 0.745142 1.132284 0.222258
v 0.745142 1.132284 -0.222258
v 0.826388 0.965840 0.222258
v 0.826388 0.965840 -0.222258
v 0.600297 0.491669 -0.151155
v 0.600297 0.491669 0.151155
v 0.745142 0.565435 -0.151155
v 0.745142 0.565435 0.151155
v 0.826388 0.731879 -0.151155
v 0.826388 0.731879 0.151155
v 0.600296 1.206050 0.151155
v 0.600296 1.206050 -0.151155
v 0.745142 1.132284 0.151155
v 0.745142 1.132284 -0.151155
v 0.826388 0.965840 0.151155
v 0.826388 0.965840 -0.151155
v 0.731582 0.578767 0.427635
v 0.807859 0.736160 0.427635
v 0.722982 0.764880 0.519539
v 0.722982 0.932839 0.519539
v 0.600297 1.189104 0.427635
v 0.731582 1.118952 0.427635
v 0.577272 1.081625 0.519539
v 0.585855 1.081625 0.519539
v 0.671695 0.659810 0.519539
v 0.585855 0.616093 0.519539
v 0.577272 0.616093 0.519539
v 0.731582 0.578767 -0.427635
v 0.807859 0.736160 -0.427635
v 0.807859 0.961559 -0.427635
v 0.671695 1.037909 0.519539
v 0.600297 0.508614 0.427635
v 0.600297 0.508615 -0.427635
v 0.600297 1.189104 -0.427635
v 0.731582 1.118952 -0.427635
v 0.807859 0.961559 0.427635
v 0.577272 0.616094 -0.519539
v 0.577272 1.081625 -0.519539
v 0.585855 1.081625 -0.519539
v 0.585855 0.616094 -0.519539
v 0.671695 1.037909 -0.519539
v 0.671695 0.659810 -0.519539
v 0.722982 0.764880 -0.519539
v 0.722982 0.932839 -0.519539
v 0.600297 0.508615 0.222258
v 0.731582 0.578767 0.222258
v 0.807859 0.736160 0.222258
v 0.600297 1.189104 -0.222258
v 0.731582 1.118952 -0.222258
v 0.807859 0.961559 -0.222258
v 0.600297 0.508615 -0.222258
v 0.731582 0.578767 -0.222258
v 0.807859 0.736160 -0.222258
v 0.600297 1.189104 0.222258
v 0.731582 1.118952 0.222258
v 0.807859 0.961559 0.222258
v 0.600297 0.508615 -0.151155
v 0.600297 0.508615 0.151155
v 0.731582 0.578767 -0.151155
v 0.731582 0.578767 0.151155
v 0.807859 0.736160 -0.151155
v 0.807859 0.736160 0.151155
v 0.600297 1.189104 0.151155
v 0.600297 1.189104 -0.151155
v 0.731582 1.118952 0.151155
v 0.731582 1.118952 -0.151155
v 0.807859 0.961559 0.151155
v 0.807859 0.961559 -0.151155
v 0.476875 0.608556 -0.427635
v 0.476875 1.089162 -0.427635
v 0.476875 0.608556 0.427635
v 0.476875 1.089162 0.427635
v 0.600297 1.089162 0.427635
v 0.600297 0.608556 0.427635
v 0.600297 1.089162 -0.427635
v 0.600297 0.608556 -0.427635
v 0.600297 0.596786 0.436156
v 0.600297 0.596786 -0.436156
v 0.600297 1.100933 -0.436156
v 0.600297 1.100933 0.436156
v 0.734101 0.714206 0.438633
v 0.734101 0.714206 -0.438633
v 0.734101 0.983513 -0.438633
v 0.734101 0.983513 0.438633
v 0.476875 1.206050 -0.063874
v 0.600296 1.206050 -0.063874
v 0.600296 1.206050 0.063874
v 0.476875 1.206050 0.063874
v 0.600297 1.226987 0.063874
v 0.600297 1.226987 -0.063874
v 0.375443 1.206050 0.063874
v 0.375443 1.206050 -0.063874
v 0.375443 1.226987 0.063874
v 0.375443 1.226987 -0.063874
v 0.545949 1.209050 0.001797
v 0.538930 1.209050 -0.017487
v 0.521158 1.209050 -0.027747
v 0.500948 1.209050 -0.024184
v 0.487758 1.209050 -0.008464
v 0.487758 1.209050 0.012058
v 0.500948 1.209050 0.027778
v 0.521158 1.209050 0.031341
v 0.538930 1.209050 0.021081
v 0.422080 1.209050 -0.020661
v 0.422080 1.209050 0.024255
vn 0.1551 -0.9879 -0.0000
vn 0.2333 -0.9724 -0.0000
vn -0.0000 -1.0000 -0.0000
vn -0.0000 -0.0000 1.0000
vn 0.7131 0.7011 -0.0000
vn 0.9743 0.2251 -0.0000
vn 0.7131 -0.7011 -0.0000
vn 0.9743 -0.2251 -0.0000
vn -0.0000 1.0000 -0.0000
vn -0.2333 0.9724 -0.0000
vn 0.1551 0.9879 -0.0000
vn 0.2333 0.9724 -0.0000
vn 1.0000 -0.0000 -0.0000
vn -0.0000 -0.0000 -1.0000
vn -0.9743 0.2251 -0.0000
vn -0.9743 -0.2251 -0.0000
vn -0.7131 0.7011 -0.0000
vn -0.7131 -0.7011 -0.0000
vn 0.4713 0.8820 -0.0000
vn 0.8999 0.4361 -0.0000
vn 0.8999 -0.4361 -0.0000
vn 0.4713 -0.8820 -0.0000
vn -0.2333 -0.9724 -0.0000
vn -1.0000 -0.0000 -0.0000
vn 0.0185 -0.0000 0.9998
vn -0.6596 0.7516 -0.0000
vn 0.0185 -0.0000 -0.9998
vn -0.6596 -0.7516 -0.0000
vn 0.5000 -0.0000 0.8660
vn 0.7660 -0.0000 0.6428
vn -0.1826 -0.0000 -0.9832
vn -0.7660 -0.0000 0.6428
vn -0.7660 -0.0000 -0.6428
vn 0.7660 -0.0000 -0.6428
vn 0.5000 -0.0000 -0.8660
vn -0.1736 -0.0000 0.9848
vn -0.1736 -0.0000 -0.9848
vn -0.1826 -0.0000 0.9832
vt 0.440205 0.388828
vt 0.440205 0.414593
vt 0.440205 0.489014
vt 0.440205 0.529207
vt 0.395482 0.529207
vt 0.395482 0.138905
vt 0.440205 0.138905
vt 0.440205 0.179098
vt 0.440205 0.253519
vt 0.440205 0.279284
vt 0.567041 0.662433
vt 0.567041 0.577655
vt 0.573755 0.579206
vt 0.573755 0.660882
vt 0.768876 0.432476
vt 0.768876 0.499590
vt 0.728683 0.499590
vt 0.728683 0.432476
vt 0.296482 0.618387
vt 0.308440 0.655856
vt 0.223662 0.655857
vt 0.235620 0.618387
vt 0.061244 0.809327
vt 0.061244 0.983479
vt 0.016521 0.983479
vt 0.016521 0.809327
vt 0.762162 0.349064
vt 0.721969 0.349064
vt 0.721969 0.290163
vt 0.762162 0.290163
vt 0.163349 0.626416
vt 0.197547 0.599802
vt 0.721969 0.223049
vt 0.762162 0.223049
vt 0.728683 0.710384
vt 0.728683 0.651483
vt 0.768876 0.651483
vt 0.768876 0.710384
vt 0.350396 0.565587
vt 0.395482 0.573930
vt 0.350396 0.568697
vt 0.899210 0.353074
vt 0.899210 0.356184
vt 0.892319 0.356184
vt 0.892319 0.353074
vt 0.721969 0.138271
vt 0.762162 0.138271
vt 0.368752 0.626416
vt 0.334555 0.599802
vt 0.091896 0.279284
vt 0.091896 0.253519
vt 0.091896 0.179099
vt 0.091896 0.138905
vt 0.136619 0.138905
vt 0.136619 0.179098
vt 0.136619 0.310911
vt 0.091896 0.310911
vt 0.446346 0.279284
vt 0.446346 0.388828
vt 0.721969 0.012256
vt 0.762162 0.012256
vt 0.762162 0.071156
vt 0.721969 0.071156
vt 0.136619 0.573930
vt 0.181706 0.568697
vt 0.768876 0.373575
vt 0.728683 0.373575
vt 0.728683 0.584368
vt 0.768876 0.584368
vt 0.181705 0.099415
vt 0.181705 0.102525
vt 0.136619 0.094182
vt 0.350396 0.102525
vt 0.350396 0.099415
vt 0.395482 0.094182
vt 0.197547 0.068310
vt 0.163349 0.041696
vt 0.334554 0.068310
vt 0.368752 0.041696
vt 0.296481 0.049726
vt 0.235620 0.049726
vt 0.223661 0.012256
vt 0.308439 0.012256
vt 0.091896 0.414594
vt 0.091896 0.489014
vt 0.085755 0.489014
vt 0.085755 0.414594
vt 0.477571 0.577655
vt 0.477571 0.662433
vt 0.470857 0.660882
vt 0.470857 0.579206
vt 0.136619 0.529207
vt 0.181706 0.565587
vt 0.899210 0.433457
vt 0.899210 0.494319
vt 0.892319 0.494319
vt 0.892319 0.433457
vt 0.768697 0.073343
vt 0.768876 0.136720
vt 0.899210 0.391091
vt 0.892319 0.391091
vt 0.541276 0.662433
vt 0.541276 0.577655
vt 0.721969 0.498039
vt 0.722148 0.434662
vt 0.477571 0.729548
vt 0.503336 0.729548
vt 0.503336 0.788448
vt 0.477571 0.788448
vt 0.899210 0.536686
vt 0.892319 0.536686
vt 0.503336 0.662433
vt 0.767634 0.015042
vt 0.768697 0.068970
vt 0.567041 0.510541
vt 0.541276 0.510541
vt 0.567041 0.451640
vt 0.541276 0.451640
vt 0.503336 0.451640
vt 0.503336 0.510541
vt 0.477571 0.510541
vt 0.477571 0.451640
vt 0.472100 0.785662
vt 0.471036 0.731734
vt 0.503336 0.577655
vt 0.768697 0.292349
vt 0.767634 0.346277
vt 0.567041 0.729547
vt 0.541276 0.729547
vt 0.721969 0.582817
vt 0.721969 0.501142
vt 0.567041 0.788448
vt 0.541276 0.788448
vt 0.573576 0.731734
vt 0.572513 0.785661
vt 0.723211 0.707597
vt 0.722148 0.653669
vt 0.135445 0.680368
vt 0.138555 0.680368
vt 0.138555 0.849058
vt 0.135445 0.849058
vt 0.104340 0.833217
vt 0.085755 0.795144
vt 0.085755 0.734282
vt 0.104340 0.696209
vt 0.166176 0.680368
vt 0.197281 0.696209
vt 0.215866 0.734282
vt 0.215866 0.795144
vt 0.197281 0.833217
vt 0.166176 0.849058
vt 0.163066 0.849058
vt 0.163066 0.680368
vt 0.672687 0.451640
vt 0.672687 0.505578
vt 0.598266 0.505578
vt 0.598266 0.451640
vt 0.672687 0.568956
vt 0.598266 0.568956
vt 0.793388 0.552065
vt 0.867808 0.552065
vt 0.867808 0.615443
vt 0.793388 0.615443
vt 0.867808 0.669381
vt 0.793388 0.669381
vt 0.672687 0.650631
vt 0.598266 0.650631
vt 0.793388 0.470390
vt 0.867808 0.470390
vt 0.598266 0.714009
vt 0.672687 0.714009
vt 0.672687 0.767947
vt 0.598266 0.767947
vt 0.867808 0.407012
vt 0.793388 0.407012
vt 0.867808 0.353074
vt 0.793388 0.353074
vt 0.902933 0.012256
vt 0.902933 0.066194
vt 0.793388 0.066194
vt 0.793388 0.012256
vt 0.902933 0.129571
vt 0.793388 0.129571
vt 0.793388 0.211247
vt 0.902933 0.211247
vt 0.902933 0.274624
vt 0.793388 0.274624
vt 0.902933 0.328563
vt 0.793388 0.328563
vt 0.899211 0.599214
vt 0.899211 0.602324
vt 0.892320 0.602323
vt 0.892320 0.599214
vt 0.510050 0.579206
vt 0.510050 0.660882
vt 0.899210 0.817732
vt 0.899210 0.820842
vt 0.892319 0.820842
vt 0.892319 0.817732
vt 0.534562 0.660882
vt 0.534562 0.579206
vt 0.899211 0.637230
vt 0.892320 0.637230
vt 0.446346 0.414593
vt 0.446346 0.489014
vt 0.899210 0.782825
vt 0.892319 0.782825
vt 0.899210 0.679597
vt 0.899210 0.740459
vt 0.892319 0.740459
vt 0.892319 0.679597
vt 0.535804 0.785661
vt 0.534741 0.731734
vt 0.722148 0.649297
vt 0.721969 0.585920
vt 0.509871 0.731734
vt 0.508808 0.785662
vt 0.722148 0.430290
vt 0.723211 0.376362
vt 0.471036 0.508354
vt 0.472100 0.454427
vt 0.534741 0.727361
vt 0.534562 0.663984
vt 0.572512 0.454427
vt 0.573576 0.508354
vt 0.510050 0.663984
vt 0.509871 0.727361
vt 0.085755 0.253519
vt 0.085755 0.179099
vt 0.509871 0.512727
vt 0.510050 0.576104
vt 0.899210 0.571592
vt 0.899210 0.574702
vt 0.892319 0.574702
vt 0.892319 0.571592
vt 0.534562 0.576104
vt 0.534741 0.512727
vt 0.446346 0.179098
vt 0.446346 0.253519
vt 0.061244 0.325259
vt 0.061244 0.499411
vt 0.016521 0.499411
vt 0.016521 0.325259
vt 0.470857 0.576104
vt 0.471036 0.512727
vt 0.768876 0.224600
vt 0.768697 0.287977
vt 0.573576 0.512727
vt 0.573755 0.576104
vt 0.768876 0.139822
vt 0.768876 0.221498
vt 0.573755 0.663984
vt 0.573576 0.727361
vt 0.508808 0.454427
vt 0.509871 0.508354
vt 0.471036 0.727361
vt 0.470857 0.663984
vt 0.534741 0.508354
vt 0.535804 0.454427
vt 0.240377 0.849058
vt 0.240377 0.680368
vt 0.247268 0.680368
vt 0.247268 0.849058
vt 0.178974 0.179098
vt 0.178974 0.489014
vt 0.136619 0.489014
vt 0.136619 0.357201
vt 0.271779 0.849058
vt 0.271779 0.680368
vt 0.278670 0.680368
vt 0.278670 0.849058
vt 0.061244 0.015344
vt 0.016521 0.015344
vt 0.012256 0.328347
vt 0.012256 0.012256
vt 0.013433 0.987744
vt 0.013433 0.805062
vt 0.012256 0.812415
vt 0.012256 0.496324
vt 0.013433 0.503676
vt 0.013433 0.320994
vt 0.675499 0.427129
vt 0.492816 0.427128
vt 0.535364 0.378635
vt 0.632950 0.378635
vt 0.632950 0.060749
vt 0.535364 0.060749
vt 0.470857 0.377738
vt 0.470857 0.061646
vt 0.492816 0.012256
vt 0.675499 0.012256
vt 0.697457 0.061646
vt 0.697457 0.377738
vt 0.353127 0.179098
vt 0.353127 0.489014
vt 0.310768 0.687954
vt 0.310768 0.769432
vt 0.303182 0.769432
vt 0.303182 0.732678
vt 0.303182 0.687954
vt 0.091896 0.357201
vt 0.091896 0.529207
vt 0.091896 0.388829
vt 0.364646 0.732678
vt 0.364646 0.769432
vt 0.357059 0.769432
vt 0.357059 0.687954
vt 0.364645 0.687954
vt 0.357059 0.777019
vt 0.310768 0.777019
vt 0.357059 0.813774
vt 0.310768 0.813774
vt 0.357059 0.680368
vt 0.310768 0.680368
vt 0.341400 0.752533
vt 0.325125 0.752533
vt 0.340250 0.710191
vt 0.333262 0.707648
vt 0.326275 0.710191
vt 0.322557 0.716631
vt 0.323848 0.723954
vt 0.329544 0.728734
vt 0.336980 0.728734
vt 0.342677 0.723954
vt 0.343968 0.716631
vt 0.392671 0.710467
vt 0.398367 0.705688
vt 0.402545 0.710666
vt 0.396849 0.715446
vt 0.420791 0.688054
vt 0.416372 0.711853
vt 0.409981 0.710666
vt 0.414401 0.686867
vt 0.404040 0.737860
vt 0.397053 0.735317
vt 0.399276 0.729209
vt 0.406263 0.731752
vt 0.415474 0.735317
vt 0.408486 0.737860
vt 0.413251 0.729209
vt 0.414159 0.705688
vt 0.419855 0.710467
vt 0.415678 0.715446
vt 0.393647 0.732459
vt 0.389929 0.726019
vt 0.395558 0.722769
vt 0.398125 0.680368
vt 0.414401 0.680368
vt 0.398125 0.686867
vt 0.422078 0.714318
vt 0.423370 0.721641
vt 0.416969 0.722769
vt 0.389157 0.721641
vt 0.390448 0.714318
vt 0.396155 0.711853
vt 0.391735 0.688054
vt 0.422598 0.726019
vt 0.418880 0.732459
vt 0.085755 0.388829
vt 0.085755 0.279284
s 1
usemtl ChestLid
f 183/249/43 171/250/43 142/251/43 165/252/44 162/253/45 154/254/45 157/255/44 143/256/43 170/257/43 182/258/43
f 186/259/46 193/260/46 245/261/46 238/262/46
f 135/263/47 169/264/48 153/265/48 149/266/47
f 138/267/46 168/268/46 169/269/46 139/270/46
f 247/271/46 246/272/46 253/273/46 252/274/46
f 143/275/43 157/276/44 159/277/49 147/278/49
f 139/270/46 169/269/46 135/279/46 166/280/46
f 147/278/49 159/277/49 160/281/50 151/282/50
f 142/283/43 146/284/49 167/285/49 165/286/44
f 126/287/46 162/253/46 165/288/46 130/289/46
f 126/290/51 130/291/52 203/292/52 204/293/51
f 160/281/50 161/294/48 152/295/48 151/282/50
f 130/289/46 165/288/46 167/296/46 134/297/46
f 189/298/53 177/299/53 144/300/53 129/301/54 155/302/51 140/303/51 262/304/51 263/305/51
f 183/249/55 182/258/55 234/306/55 235/307/55
f 129/308/54 144/309/53 148/310/47 133/311/47
f 133/311/47 148/310/47 152/295/48 161/294/48
f 166/280/46 135/279/46 131/312/46 164/313/46
f 131/314/54 135/263/47 149/266/47 145/315/53
f 146/284/49 150/316/50 168/317/50 167/285/49
f 156/318/56 125/319/56 155/302/56 129/320/56
f 124/321/56 128/322/56 157/323/56 154/254/56
f 158/324/56 156/318/56 129/320/56 133/325/56
f 128/322/56 132/326/56 159/327/56 157/323/56
f 136/328/56 137/329/56 161/330/56 160/331/56
f 137/329/56 158/324/56 133/325/56 161/330/56
f 132/326/56 136/328/56 160/331/56 159/327/56
f 176/332/55 145/333/55 198/334/55 231/335/55
f 192/336/56 187/337/56 239/338/56 244/339/56
f 164/313/46 131/312/46 163/340/46 127/341/46
f 138/342/57 139/343/58 197/344/58 196/345/57
f 168/317/50 150/316/50 153/265/48 169/264/48
f 134/297/46 167/296/46 168/268/46 138/267/46
f 152/295/46 148/310/46 212/346/46 207/347/46
f 134/348/59 138/342/57 196/345/57 202/349/59
f 186/259/50 174/350/50 181/351/48 193/260/48
f 149/266/56 153/265/56 213/352/56 199/353/56
f 185/354/49 173/355/49 171/356/43 183/357/43
f 139/343/58 166/358/60 208/359/60 197/344/58
f 187/337/50 175/360/50 173/355/49 185/354/49
f 148/310/46 144/309/46 211/361/46 212/362/46
f 191/363/47 193/260/48 181/351/48 179/364/47
f 189/365/53 191/363/47 179/364/47 177/366/53
f 176/367/53 178/368/47 190/369/47 188/370/53
f 185/354/56 183/357/56 235/371/56 237/372/56
f 178/368/47 180/373/48 192/336/48 190/369/47
f 143/275/46 147/278/46 205/374/46 210/375/46
f 174/350/50 186/259/50 184/376/49 172/377/49
f 153/265/56 150/316/56 195/378/56 213/379/56
f 172/377/49 184/376/49 182/380/43 170/381/43
f 182/380/46 184/376/46 236/382/46 234/383/46
f 175/360/50 187/337/50 192/336/48 180/373/48
f 146/284/56 142/283/56 209/384/56 194/385/56
f 201/386/46 200/387/46 204/388/46 203/389/46 202/390/46 196/391/46 197/392/46 208/393/46
f 216/394/56 218/395/56 221/396/56 220/397/56 219/398/56 217/399/56 214/400/56 215/401/56
f 225/402/61 226/403/61 212/404/61 211/405/61
f 226/403/62 227/406/62 207/407/62 212/404/62
f 224/408/63 195/409/63 194/410/63 223/411/63
f 223/411/64 194/410/64 209/412/64 222/413/64
f 230/414/55 206/415/55 207/407/55 227/406/55
f 195/409/55 224/408/55 233/416/55 213/417/55
f 205/418/64 229/419/64 228/420/64 210/421/64
f 206/415/63 230/414/63 229/419/63 205/418/63
f 199/422/62 213/417/62 233/416/62 232/423/62
f 198/424/61 199/422/61 232/423/61 231/425/61
f 240/426/61 242/427/61 243/428/61 241/429/61
f 242/427/62 244/430/62 245/431/62 243/428/62
f 238/432/63 239/433/63 237/434/63 236/435/63
f 236/435/64 237/434/64 235/436/64 234/437/64
f 125/438/45 156/439/65 216/440/65 215/441/45
f 175/360/46 180/373/46 233/442/46 224/443/46
f 128/444/52 124/445/51 214/446/51 217/447/52
f 239/433/55 238/432/55 245/431/55 244/430/55
f 181/351/56 174/350/56 230/448/56 227/449/56
f 156/439/65 158/450/60 218/451/60 216/440/65
f 142/251/55 171/250/55 222/452/55 209/453/55
f 132/454/59 128/444/52 217/447/52 219/455/59
f 137/456/58 136/457/57 220/458/57 221/459/58
f 172/377/56 170/381/56 228/460/56 229/461/56
f 158/450/60 137/456/58 221/459/58 218/451/60
f 150/316/56 146/284/56 194/462/56 195/463/56
f 171/356/46 173/355/46 223/464/46 222/465/46
f 136/457/57 132/454/59 219/455/59 220/458/57
f 145/315/56 149/266/56 199/466/56 198/467/56
f 188/370/56 190/369/56 242/468/56 240/469/56
f 174/350/56 172/377/56 229/470/56 230/471/56
f 191/363/46 189/365/46 241/472/46 243/473/46
f 173/355/46 175/360/46 224/474/46 223/475/46
f 144/300/55 177/299/55 225/476/55 211/477/55
f 180/373/46 178/368/46 232/478/46 233/479/46
f 164/480/65 127/481/45 200/482/45 201/483/65
f 179/364/56 181/351/56 227/484/56 226/485/56
f 170/257/55 143/256/55 210/486/55 228/487/55
f 130/291/52 134/348/59 202/349/59 203/292/52
f 248/488/56 249/489/56 250/490/56 251/491/56
f 190/369/56 192/336/56 244/492/56 242/493/56
f 147/278/46 151/282/46 206/494/46 205/495/46
f 193/260/46 191/363/46 243/496/46 245/497/46
f 151/282/46 152/295/46 207/498/46 206/499/46
f 184/376/46 186/259/46 238/500/46 236/501/46
f 178/368/46 176/367/46 231/502/46 232/503/46
f 166/358/60 164/480/65 201/483/65 208/359/60
f 187/337/56 185/354/56 237/504/56 239/505/56
f 177/366/56 179/364/56 226/506/56 225/507/56
f 127/508/55 126/509/55 204/510/55 200/511/55
f 140/303/66 247/512/66 249/513/66 141/514/66 265/515/66 262/304/66
f 249/489/45 247/271/45 252/274/45 250/490/45
f 125/319/56 124/321/56 154/254/56 155/302/56
f 163/340/46 162/253/46 126/287/46 127/341/46
f 124/516/55 125/517/55 215/518/55 214/519/55
f 246/520/51 248/488/51 251/491/51 253/521/51
f 253/521/55 251/491/55 254/522/55 255/523/55
f 252/274/55 253/273/55 255/524/55 256/525/55
f 250/490/55 252/274/55 256/526/55 257/527/55
f 251/491/55 250/490/55 257/528/55 254/529/55
f 256/530/67 255/531/67 259/532/67 260/533/67
f 261/534/66 260/533/66 259/532/66 258/535/66
f 255/536/68 254/537/68 258/535/68 259/532/68
f 254/538/69 257/539/69 261/534/69 258/535/69
f 257/540/70 256/541/70 260/533/70 261/534/70
f 246/542/66 247/512/66 140/303/66 155/302/66 154/254/66 162/253/66 163/340/66 141/514/66 249/513/66 248/543/66
f 266/544/46 270/545/46 268/546/46 265/547/46 264/548/46
f 264/549/51 265/515/51 141/514/51 163/340/51 131/550/54 145/333/53 176/332/53 188/551/53
f 262/552/56 269/553/56 271/554/56 267/555/56 263/556/56
f 269/557/66 268/558/66 270/545/66 271/554/66
f 262/559/45 265/560/45 268/558/45 269/557/45
f 263/561/55 267/555/55 266/544/55 264/562/55
f 122/563/51 271/554/51 270/545/51 123/564/51
f 114/565/51 113/566/51 121/567/51 120/568/51 119/569/51 118/570/51 123/564/51 270/545/51 266/544/51 267/555/51 271/554/51 122/563/51 117/571/51 116/572/51 115/573/51
f 116/574/71 117/575/72 276/576/72 275/577/71
f 123/578/73 118/579/73 277/580/73 282/581/73
f 113/582/66 114/583/74 273/584/74 272/585/66
f 121/586/75 113/587/66 272/585/66 280/588/75
f 118/589/76 119/590/77 278/591/77 277/580/76
f 114/592/74 115/593/78 274/594/78 273/584/74
f 122/595/55 123/596/55 282/581/55 281/597/55
f 119/598/77 120/599/79 279/600/79 278/591/77
f 115/601/78 116/602/71 275/577/71 274/594/78
f 117/603/80 122/604/80 281/597/80 276/576/80
f 120/605/79 121/606/75 280/588/75 279/600/79
f 273/584/51 274/594/51 275/577/51 276/576/51 281/597/51 282/581/51 277/580/51 278/591/51 279/600/51 280/588/51 272/585/51
f 264/549/55 188/551/55 240/607/55 241/608/55 189/298/55 263/305/55
